<?xml version="1.0" encoding="UTF-8"?>
<svg xmlns="http://www.w3.org/2000/svg" xmlns:xlink="http://www.w3.org/1999/xlink" width="600px" height="600px" viewBox="0 0 600 600" version="1.1">
<g id="surface1">
<path style=" stroke:none;fill-rule:nonzero;fill:rgb(27.843139%,61.176473%,20.784314%);fill-opacity:1;" d="M 298.5 290.941406 C 296.429688 286.019531 292.320312 281.429688 292.800781 275.550781 C 293.128906 270.628906 296.761719 267.78125 301.53125 269.371094 C 309.929688 272.21875 302.640625 282.691406 300.269531 287.460938 C 300.121094 287.941406 299.160156 291.269531 298.53125 290.789062 L 298.53125 290.941406 Z M 298.5 290.941406 "/>
<path style=" stroke:none;fill-rule:nonzero;fill:rgb(27.843139%,61.176473%,20.784314%);fill-opacity:1;" d="M 304.199219 293.011719 C 304.679688 287.761719 304.679688 276.988281 310.710938 274.921875 C 313.558594 273.960938 316.109375 274.769531 317.851562 277.140625 C 322.621094 284.28125 308.96875 290.160156 304.199219 293.011719 Z M 304.199219 293.011719 "/>
<path style=" stroke:none;fill-rule:nonzero;fill:rgb(27.843139%,61.176473%,20.784314%);fill-opacity:1;" d="M 324.511719 288.71875 C 327.359375 291.570312 325.621094 296.671875 322.289062 298.230469 C 317.851562 300.300781 312.929688 298.710938 308.308594 297.601562 C 310.378906 293.011719 319.410156 283.800781 324.511719 288.71875 Z M 324.511719 288.71875 "/>
<path style=" stroke:none;fill-rule:nonzero;fill:rgb(95.686275%,82.745099%,36.862746%);fill-opacity:1;" d="M 250.710938 323.96875 C 239.609375 282.871094 217.859375 241.589844 221.519531 198.089844 C 224.070312 167.128906 234.058594 142.050781 206.429688 118.410156 C 193.738281 107.609375 176.101562 100.949219 159.601562 98.730469 C 150.390625 122.398438 146.429688 147.449219 161.191406 169.828125 C 171.359375 185.21875 187.859375 192.058594 199.769531 205.230469 C 210.238281 216.660156 216.601562 231.089844 222.480469 245.398438 C 222.148438 245.878906 221.519531 244.769531 221.519531 244.621094 C 207.960938 223.199219 193.351562 204.328125 169.109375 194.820312 C 167.789062 194.308594 166.410156 193.859375 165.03125 193.5 L 160.859375 192.390625 C 203.550781 234.929688 228.78125 291.449219 251.820312 346.351562 L 255.75 354.691406 C 255.089844 344.191406 253.53125 334.171875 250.710938 323.96875 Z M 210.871094 169.199219 C 202.140625 184.738281 180.871094 177.929688 171.988281 165.871094 C 162.300781 152.519531 165.480469 135.539062 171.988281 121.589844 C 179.128906 122.070312 186.898438 123.808594 193.410156 126.988281 L 193.261719 126.988281 C 207.871094 134.128906 219.601562 153.660156 210.871094 169.199219 Z M 210.871094 169.199219 "/>
<path style=" stroke:none;fill-rule:nonzero;fill:rgb(96.470588%,62.7451%,30.19608%);fill-opacity:1;" d="M 205.320312 328.738281 L 197.550781 316.351562 C 190.410156 306.511719 182.640625 296.519531 176.761719 285.71875 C 168.808594 271.109375 165.960938 255.089844 154.230469 242.21875 C 136.621094 223.019531 105.660156 221.910156 82.019531 229.199219 C 82.980469 253.800781 90.421875 279.839844 113.28125 292.378906 C 131.070312 302.21875 151.378906 297.449219 169.949219 304.589844 C 183.449219 309.839844 194.878906 319.351562 205.5 328.890625 L 205.351562 328.738281 Z M 148.648438 283.171875 C 136.890625 292.378906 117.058594 285.390625 108.808594 274.441406 C 104.519531 268.890625 100.230469 257.789062 99.449219 250.800781 C 99.300781 250.171875 98.96875 245.550781 98.96875 245.25 C 99.300781 243.988281 104.851562 242.550781 106.261719 242.25 C 122.761719 238.289062 138.960938 240.511719 149.28125 254.941406 L 149.429688 254.789062 C 155.789062 263.671875 158.160156 275.578125 148.648438 283.199219 Z M 148.648438 283.171875 "/>
<path style=" stroke:none;fill-rule:nonzero;fill:rgb(54.509807%,77.64706%,49.019608%);fill-opacity:1;" d="M 265.46875 293.820312 C 264.210938 292.710938 263.398438 290.96875 262.621094 289.53125 C 243.238281 256.5 240.71875 216.03125 248.191406 179.039062 C 250.410156 167.941406 254.21875 157.140625 256.140625 146.011719 L 257.730469 152.519531 C 262.019531 184.261719 268.53125 216.808594 269.640625 248.699219 C 270.121094 263.789062 270.121094 279.480469 265.5 293.789062 Z M 265.46875 293.820312 "/>
<path style=" stroke:none;fill-rule:nonzero;fill:rgb(54.509807%,77.64706%,49.019608%);fill-opacity:1;" d="M 253.558594 382.050781 L 236.25 353.160156 C 223.558594 332.851562 207.511719 314.28125 195.929688 293.308594 C 186.71875 276.480469 181.019531 257.910156 173.550781 240.300781 C 196.710938 261.898438 213.058594 289.5 227.671875 317.429688 C 238.46875 337.921875 248.609375 359.191406 253.53125 381.871094 L 253.53125 382.019531 Z M 253.558594 382.050781 "/>
<path style=" stroke:none;fill-rule:nonzero;fill:rgb(49.411765%,76.862746%,60.392159%);fill-opacity:1;" d="M 248.640625 400.320312 C 243.71875 395.550781 239.578125 389.851562 234.988281 384.75 C 225.148438 373.949219 213.570312 363.480469 202.289062 354.121094 C 180.238281 335.699219 156.269531 317.941406 128.160156 309.839844 C 128.640625 309.210938 129.269531 309.359375 129.898438 309.210938 C 174.328125 298.890625 223.078125 351.898438 242.28125 386.820312 C 244.648438 391.109375 246.871094 395.878906 248.640625 400.320312 Z M 248.640625 400.320312 "/>
<path style=" stroke:none;fill-rule:nonzero;fill:rgb(64.705884%,36.862746%,13.725491%);fill-opacity:1;" d="M 143.398438 273.660156 C 138.808594 282.539062 124.980469 277.949219 120.058594 271.738281 C 114.808594 265.078125 115.289062 255.089844 124.980469 253.5 C 134.339844 252.058594 148.46875 263.96875 143.398438 273.660156 Z M 143.398438 273.660156 "/>
<path style=" stroke:none;fill-rule:nonzero;fill:rgb(74.901962%,56.862748%,0%);fill-opacity:1;" d="M 200.25 166.828125 C 192.480469 173.011719 181.679688 163.5 179.609375 155.730469 C 177.390625 147.480469 181.980469 138.421875 191.371094 140.96875 L 191.519531 140.96875 C 200.550781 143.339844 208.828125 160.019531 200.25 166.828125 Z M 200.25 166.828125 "/>
<path style=" stroke:none;fill-rule:nonzero;fill:rgb(62.7451%,17.647059%,17.647059%);fill-opacity:1;" d="M 147.691406 362.550781 C 147.539062 369.839844 137.21875 372.539062 131.191406 371.910156 C 115.648438 370.320312 113.398438 351.601562 129.75 350.160156 L 129.898438 350.160156 C 136.558594 349.53125 147.988281 354.75 147.691406 362.550781 Z M 147.691406 362.550781 "/>
<path style=" stroke:none;fill-rule:nonzero;fill:rgb(65.882355%,82.352942%,28.235295%);fill-opacity:1;" d="M 336.601562 119.671875 C 320.398438 129.988281 311.039062 147.121094 304.53125 164.730469 L 301.199219 175.410156 L 301.320312 169.019531 C 305.128906 132.660156 345 106.5 332.160156 66.511719 C 327.871094 53.339844 315.179688 38.578125 305.011719 29.21875 C 304.378906 28.589844 301.050781 25.410156 300.71875 25.410156 C 300.480469 25.320312 300.269531 25.199219 300 25.199219 C 299.761719 25.171875 299.519531 25.289062 299.28125 25.410156 C 298.949219 25.410156 295.621094 28.589844 294.988281 29.21875 C 284.820312 38.578125 272.128906 53.339844 267.839844 66.511719 C 254.96875 106.5 294.871094 132.691406 298.679688 169.019531 L 298.800781 175.410156 L 295.46875 164.730469 C 288.960938 147.121094 279.601562 129.960938 263.398438 119.671875 C 261.480469 118.410156 259.109375 116.640625 256.738281 116.160156 C 272.609375 136.171875 279.601562 160.441406 285.148438 184.890625 C 290.851562 210.601562 295.230469 236.640625 300 262.5 C 304.769531 236.640625 309.121094 210.601562 314.851562 184.890625 C 320.398438 160.441406 327.390625 136.171875 343.261719 116.160156 C 340.890625 116.640625 338.488281 118.378906 336.601562 119.671875 Z M 280.859375 98.398438 C 271.320312 79.050781 284.191406 60.449219 299.578125 49.199219 C 299.640625 49.199219 299.789062 49.050781 299.96875 49.050781 C 300.148438 49.050781 300.328125 49.199219 300.390625 49.199219 C 315.78125 60.480469 328.648438 79.050781 319.109375 98.398438 C 314.640625 107.21875 307.320312 111.539062 299.96875 111.359375 C 292.621094 111.539062 285.300781 107.21875 280.828125 98.398438 Z M 280.859375 98.398438 "/>
<path style=" stroke:none;fill-rule:nonzero;fill:rgb(100%,64.705884%,2.745098%);fill-opacity:1;" d="M 385.921875 562.558594 C 383.070312 562.738281 372.929688 565.320312 368.160156 565.621094 C 367.441406 565.679688 366.421875 565.5 366 564.871094 C 364.558594 562.261719 372.898438 558.839844 375.238281 557.429688 C 378.511719 555.691406 382.199219 553.710938 384.71875 551.128906 C 386.398438 549.421875 387.359375 547.53125 387 545.191406 C 386.191406 539.191406 378.300781 536.96875 372.75 536.730469 C 368.460938 536.398438 363.328125 538.019531 361.289062 540.898438 C 359.878906 542.671875 358.890625 545.851562 361.289062 547.019531 C 362.28125 547.410156 363.121094 547.140625 364.230469 546.960938 C 365.851562 546.660156 367.921875 546.238281 369.570312 546.511719 C 371.160156 546.691406 372 548.039062 371.851562 549.421875 C 370.769531 555.269531 355.679688 557.28125 354.179688 568.53125 C 354.058594 569.429688 353.96875 570.511719 354.238281 571.199219 C 355.769531 574.589844 362.761719 574.679688 366.359375 574.589844 C 372.691406 574.378906 386.671875 572.128906 388.410156 565.46875 C 388.800781 563.730469 387.539062 562.648438 385.921875 562.53125 L 385.890625 562.53125 Z M 385.921875 562.558594 "/>
<path style=" stroke:none;fill-rule:nonzero;fill:rgb(100%,64.705884%,2.745098%);fill-opacity:1;" d="M 423.898438 540.179688 C 418.769531 540.179688 416.25 541.679688 416.25 543.328125 C 416.25 546.089844 418.53125 546.71875 418.53125 553.890625 C 418.53125 561.058594 416.011719 565.648438 407.398438 565.648438 C 398.789062 565.648438 400.078125 560.671875 400.078125 555 C 400.078125 549.328125 404.429688 538.980469 415.289062 538.980469 C 426.148438 538.980469 418.140625 539.371094 419.398438 539.371094 C 420.660156 539.371094 420.660156 537.871094 420.660156 536.28125 C 420.660156 534.691406 419.640625 532.558594 415.859375 532.558594 C 397.648438 532.558594 388.410156 546.121094 388.410156 557.878906 C 388.410156 569.640625 393.78125 574.769531 404.578125 574.769531 C 421.378906 574.769531 429.328125 558.988281 429.328125 548.730469 C 429.328125 538.46875 427.441406 540.121094 423.898438 540.121094 Z M 423.898438 540.179688 "/>
<path style=" stroke:none;fill-rule:nonzero;fill:rgb(100%,64.705884%,2.745098%);fill-opacity:1;" d="M 457.558594 562.558594 C 454.558594 562.738281 444.628906 565.289062 439.828125 565.621094 C 439.078125 565.710938 438.03125 565.5 437.640625 564.808594 C 436.261719 562.230469 444.570312 558.808594 446.878906 557.398438 C 450.148438 555.660156 453.839844 553.679688 456.359375 551.101562 C 458.039062 549.359375 459 547.441406 458.609375 545.101562 C 457.648438 538.828125 449.191406 536.699219 443.429688 536.671875 C 439.410156 536.550781 434.761719 538.261719 432.929688 540.871094 C 431.519531 542.640625 430.558594 545.789062 432.929688 546.960938 C 433.921875 547.351562 434.761719 547.109375 435.871094 546.929688 C 437.488281 546.628906 439.5 546.238281 441.148438 546.480469 C 442.769531 546.660156 443.640625 548.011719 443.460938 549.421875 C 442.320312 555.210938 427.441406 557.25 425.820312 568.351562 C 425.699219 569.308594 425.578125 570.480469 425.878906 571.230469 C 427.5 574.53125 434.398438 574.648438 438.03125 574.558594 C 443.851562 574.351562 451.46875 572.851562 456.121094 570.03125 C 458.25 568.738281 459.691406 567.179688 460.019531 565.410156 C 460.378906 563.730469 459.121094 562.648438 457.558594 562.5 L 457.53125 562.5 Z M 457.558594 562.558594 "/>
<path style=" stroke:none;fill-rule:nonzero;fill:rgb(100%,64.705884%,2.745098%);fill-opacity:1;" d="M 491.699219 542.820312 C 485.851562 542.460938 473.460938 545.699219 474.421875 553.019531 C 474.601562 553.949219 475.378906 554.519531 476.308594 554.488281 C 477.78125 554.550781 480 553.46875 482.128906 552.839844 C 484.109375 552.238281 486.328125 551.761719 488.371094 552.269531 C 493.140625 553.621094 490.589844 558.179688 487.679688 560.578125 C 486.269531 561.808594 484.558594 562.859375 482.730469 563.460938 C 478.078125 565.140625 473.519531 563.460938 471.988281 558.75 C 469.230469 550.078125 474.570312 539.488281 483.839844 536.128906 C 485.398438 535.558594 487.050781 535.230469 488.671875 534.78125 C 490.441406 534.300781 492.089844 533.671875 493.199219 532.621094 C 494.488281 531.480469 495.089844 529.441406 494.398438 528.058594 C 492.78125 525.058594 488.460938 525.691406 485.578125 526.378906 C 471.148438 530.398438 460.261719 546.03125 460.949219 560.101562 C 461.339844 565.378906 464.308594 570.03125 469.5 571.800781 C 479.460938 575.28125 492.359375 570.871094 498 562.078125 C 503.339844 554.488281 502.828125 543.660156 491.761719 542.789062 L 491.699219 542.789062 Z M 491.699219 542.820312 "/>
<path style=" stroke:none;fill-rule:nonzero;fill:rgb(95.686275%,82.745099%,36.862746%);fill-opacity:1;" d="M 430.949219 194.761719 C 406.679688 204.269531 392.070312 223.140625 378.480469 244.589844 C 378.480469 244.738281 377.851562 245.851562 377.519531 245.371094 C 383.398438 231.089844 389.730469 216.628906 400.230469 205.199219 C 412.140625 192.03125 428.640625 185.191406 438.808594 169.800781 C 453.570312 147.421875 449.609375 122.339844 440.398438 98.699219 C 423.898438 100.921875 406.261719 107.578125 393.570312 118.378906 C 365.941406 142.019531 375.960938 167.101562 378.480469 198.058594 C 382.140625 241.558594 360.390625 282.839844 349.289062 323.941406 C 346.46875 334.140625 344.878906 344.160156 344.25 354.660156 L 348.179688 346.320312 C 371.191406 291.390625 396.421875 234.898438 439.140625 192.359375 L 434.878906 193.46875 C 433.558594 193.828125 432.238281 194.25 430.980469 194.730469 Z M 406.738281 126.988281 L 406.589844 126.988281 C 413.101562 123.808594 420.871094 122.070312 428.011719 121.589844 C 434.519531 135.570312 437.699219 152.550781 428.011719 165.871094 C 419.128906 177.929688 397.859375 184.769531 389.128906 169.199219 C 380.398438 153.660156 392.128906 134.128906 406.738281 126.988281 Z M 406.738281 126.988281 "/>
<path style=" stroke:none;fill-rule:nonzero;fill:rgb(89.411765%,38.82353%,23.921569%);fill-opacity:1;" d="M 455.640625 331.890625 C 436.109375 340.289062 433.410156 354.898438 419.128906 367.769531 C 410.699219 375.269531 400.378906 381.390625 389.761719 385.679688 C 405.660156 373.859375 422.21875 361.410156 430.859375 343.171875 L 409.738281 356.820312 C 385.441406 375.238281 359.429688 395.699219 348.480469 425.070312 L 352.589844 420.300781 C 374.96875 396.328125 403.378906 376.800781 438 384.75 C 455.460938 388.710938 467.191406 395.699219 486.089844 389.519531 C 505.921875 383.011719 516.421875 363.660156 524.96875 346.019531 C 505.289062 330.300781 480.210938 321.269531 455.609375 331.890625 Z M 500.25 363.480469 C 494.550781 372.839844 482.640625 380.789062 471.511719 381.269531 C 462.628906 381.601562 450.570312 377.789062 445.648438 369.988281 C 444.691406 368.550781 442.648438 363.808594 442.800781 362.21875 C 442.800781 362.070312 443.761719 358.738281 443.910156 358.410156 C 445.171875 355.230469 449.308594 349.679688 452.011719 347.460938 L 451.859375 347.460938 C 464.070312 337.46875 479.488281 337.621094 492.660156 345.71875 C 494.398438 346.828125 503.128906 352.859375 503.789062 354.300781 C 504.570312 356.039062 501.421875 361.769531 500.28125 363.511719 Z M 500.25 363.480469 "/>
<path style=" stroke:none;fill-rule:nonzero;fill:rgb(96.470588%,62.7451%,30.19608%);fill-opacity:1;" d="M 445.800781 242.21875 C 434.039062 255.089844 431.191406 271.109375 423.269531 285.71875 C 417.390625 296.519531 409.621094 306.511719 402.480469 316.351562 L 394.710938 328.738281 L 394.558594 328.890625 C 405.179688 319.351562 416.609375 309.839844 430.109375 304.589844 C 448.679688 297.449219 468.988281 302.21875 486.78125 292.378906 C 509.640625 279.839844 517.109375 253.800781 518.039062 229.199219 C 494.398438 221.910156 463.441406 223.019531 445.828125 242.21875 Z M 491.191406 274.441406 C 482.941406 285.390625 463.109375 292.378906 451.351562 283.171875 C 441.808594 275.550781 444.210938 263.640625 450.570312 254.761719 L 450.71875 254.910156 C 461.039062 240.449219 477.238281 238.230469 493.738281 242.21875 C 495.179688 242.550781 500.730469 243.960938 501.03125 245.21875 C 501.03125 245.550781 500.699219 250.140625 500.550781 250.769531 C 499.769531 257.761719 495.480469 268.859375 491.191406 274.410156 Z M 491.191406 274.441406 "/>
<path style=" stroke:none;fill-rule:nonzero;fill:rgb(54.509807%,77.64706%,49.019608%);fill-opacity:1;" d="M 334.53125 293.820312 C 335.789062 292.710938 336.601562 290.96875 337.378906 289.53125 C 356.761719 256.5 359.28125 216.03125 351.808594 179.039062 C 349.589844 167.941406 345.78125 157.140625 343.859375 146.011719 L 342.269531 152.519531 C 337.980469 184.261719 331.46875 216.808594 330.359375 248.699219 C 329.878906 263.789062 329.878906 279.480469 334.5 293.789062 Z M 334.53125 293.820312 "/>
<path style=" stroke:none;fill-rule:nonzero;fill:rgb(54.509807%,77.64706%,49.019608%);fill-opacity:1;" d="M 346.441406 382.050781 L 363.75 353.160156 C 376.441406 332.851562 392.488281 314.28125 404.070312 293.308594 C 413.28125 276.480469 418.980469 257.910156 426.449219 240.300781 C 403.289062 261.898438 386.941406 289.5 372.328125 317.429688 C 361.53125 337.921875 351.390625 359.191406 346.46875 381.871094 L 346.46875 382.019531 Z M 346.441406 382.050781 "/>
<path style=" stroke:none;fill-rule:nonzero;fill:rgb(49.411765%,76.862746%,60.392159%);fill-opacity:1;" d="M 351.359375 400.320312 C 356.28125 395.550781 360.421875 389.851562 365.011719 384.75 C 374.851562 373.949219 386.429688 363.480469 397.710938 354.121094 C 419.761719 335.699219 443.730469 317.941406 471.839844 309.839844 C 471.359375 309.210938 470.730469 309.359375 470.101562 309.210938 C 425.671875 298.890625 376.921875 351.898438 357.71875 386.820312 C 355.351562 391.109375 353.128906 395.878906 351.359375 400.320312 Z M 351.359375 400.320312 "/>
<path style=" stroke:none;fill-rule:nonzero;fill:rgb(54.509807%,81.960785%,81.176472%);fill-opacity:1;" d="M 349.769531 431.910156 C 366.601562 420.480469 385.320312 410.160156 405.328125 405.71875 C 418.019531 402.871094 432 402.238281 444.691406 403.351562 L 459.601562 405.238281 C 455.640625 402.058594 450.871094 399.539062 446.28125 397.769531 C 412.949219 385.078125 377.699219 401.730469 354.539062 425.878906 Z M 349.769531 431.910156 "/>
<path style=" stroke:none;fill-rule:nonzero;fill:rgb(64.705884%,36.862746%,13.725491%);fill-opacity:1;" d="M 479.910156 271.738281 C 474.988281 277.921875 461.191406 282.539062 456.570312 273.660156 C 451.5 263.96875 465.628906 252.089844 474.988281 253.5 C 484.679688 255.089844 485.160156 265.078125 479.910156 271.738281 Z M 479.910156 271.738281 "/>
<path style=" stroke:none;fill-rule:nonzero;fill:rgb(74.901962%,56.862748%,0%);fill-opacity:1;" d="M 420.390625 155.699219 C 418.320312 163.46875 407.519531 173.011719 399.75 166.800781 C 391.171875 159.960938 399.421875 143.308594 408.480469 140.941406 L 408.628906 140.941406 C 417.988281 138.390625 422.609375 147.449219 420.390625 155.699219 Z M 420.390625 155.699219 "/>
<path style=" stroke:none;fill-rule:nonzero;fill:rgb(21.960784%,40.000001%,25.490198%);fill-opacity:1;" d="M 304.828125 100.621094 C 303.148438 101.550781 301.53125 101.96875 300 102 C 298.46875 102 296.820312 101.550781 295.171875 100.621094 C 284.21875 94.589844 287.21875 73.859375 300 72.988281 C 312.78125 73.859375 315.78125 94.589844 304.828125 100.621094 Z M 304.828125 100.621094 "/>
<path style=" stroke:none;fill-rule:nonzero;fill:rgb(62.7451%,17.647059%,17.647059%);fill-opacity:1;" d="M 468.808594 371.910156 C 462.78125 372.539062 452.460938 369.839844 452.308594 362.550781 C 451.980469 354.78125 463.441406 349.53125 470.101562 350.160156 L 470.25 350.160156 C 486.601562 351.601562 484.378906 370.320312 468.808594 371.910156 Z M 468.808594 371.910156 "/>
<path style=" stroke:none;fill-rule:nonzero;fill:rgb(52.941179%,72.156864%,24.705882%);fill-opacity:1;" d="M 121.378906 455.789062 C 101.039062 455.789062 86.761719 469.441406 86.761719 490.558594 L 86.761719 550.261719 L 102.480469 550.261719 L 102.480469 513.089844 C 107.101562 520.378906 114.871094 524.21875 124.230469 524.21875 C 139.949219 524.21875 156.628906 512.941406 156.628906 490.710938 C 156.628906 468.480469 142.171875 455.761719 121.53125 455.761719 L 121.378906 455.761719 Z M 121.378906 509.640625 C 109.949219 509.640625 102.328125 501.539062 102.328125 490.109375 C 102.328125 478.679688 109.949219 470.578125 121.378906 470.578125 C 132.808594 470.578125 140.578125 478.679688 140.578125 490.109375 C 140.578125 501.539062 132.808594 509.640625 121.378906 509.640625 Z M 121.378906 509.640625 "/>
<path style=" stroke:none;fill-rule:nonzero;fill:rgb(45.882353%,62.7451%,21.568628%);fill-opacity:1;" d="M 199.019531 455.789062 C 178.53125 455.789062 164.070312 470.25 164.070312 489.929688 C 164.070312 509.609375 178.53125 524.070312 199.019531 524.070312 C 219.511719 524.070312 233.96875 509.609375 233.96875 489.929688 C 233.96875 470.25 219.511719 455.789062 199.019531 455.789062 Z M 199.019531 509.640625 C 187.589844 509.640625 179.820312 501.539062 179.820312 490.109375 C 179.820312 478.679688 187.589844 470.578125 199.019531 470.578125 C 210.449219 470.578125 218.070312 478.679688 218.070312 490.109375 C 218.070312 501.539062 210.449219 509.640625 199.019531 509.640625 Z M 199.019531 509.640625 "/>
<path style=" stroke:none;fill-rule:nonzero;fill:rgb(89.411765%,38.82353%,23.921569%);fill-opacity:1;" d="M 190.230469 356.820312 L 169.109375 343.171875 C 177.75 361.410156 194.339844 373.859375 210.210938 385.679688 C 199.589844 381.390625 189.300781 375.300781 180.839844 367.769531 C 166.558594 354.898438 163.859375 340.320312 144.328125 331.890625 C 119.730469 321.269531 94.648438 330.300781 74.96875 346.019531 C 83.550781 363.628906 94.019531 383.011719 113.851562 389.519531 C 132.75 395.699219 144.480469 388.710938 161.941406 384.75 C 196.558594 376.800781 224.96875 396.328125 247.351562 420.300781 L 249.390625 422.640625 L 250.378906 422.339844 C 238.921875 394.261719 213.808594 374.699219 190.199219 356.820312 Z M 154.351562 369.988281 C 149.429688 377.761719 137.371094 381.570312 128.488281 381.269531 C 117.390625 380.789062 105.480469 372.871094 99.75 363.480469 C 98.640625 361.738281 95.460938 356.039062 96.238281 354.269531 C 96.871094 352.828125 105.601562 346.800781 107.371094 345.691406 C 120.539062 337.589844 135.929688 337.441406 148.171875 347.429688 L 148.019531 347.429688 C 150.71875 349.648438 154.828125 355.199219 156.121094 358.378906 C 156.269531 358.710938 157.230469 362.039062 157.230469 362.191406 C 157.378906 363.78125 155.339844 368.550781 154.378906 369.960938 Z M 154.351562 369.988281 "/>
<path style=" stroke:none;fill-rule:nonzero;fill:rgb(24.705882%,44.705883%,24.313726%);fill-opacity:1;" d="M 389.429688 455.789062 C 370.230469 455.789062 357.359375 466.921875 357.359375 488.671875 L 357.359375 522.480469 L 373.078125 522.480469 L 373.078125 488.671875 C 373.078125 476.28125 379.589844 470.398438 389.609375 470.398438 C 399.628906 470.398438 406.140625 476.28125 406.140625 488.671875 L 406.140625 522.480469 L 421.859375 522.480469 L 421.859375 488.671875 C 421.859375 466.769531 408.988281 455.789062 389.789062 455.789062 Z M 389.429688 455.789062 "/>
<path style=" stroke:none;fill-rule:nonzero;fill:rgb(19.215687%,38.039216%,22.745098%);fill-opacity:1;" d="M 485.820312 429.121094 L 485.820312 467.070312 C 481.199219 459.78125 473.429688 455.941406 464.070312 455.941406 C 448.351562 455.941406 431.671875 467.21875 431.671875 489.449219 C 431.671875 511.679688 446.128906 524.398438 466.769531 524.398438 C 487.410156 524.398438 501.390625 510.75 501.390625 489.628906 L 501.390625 429.300781 L 485.671875 429.300781 L 485.820312 429.148438 Z M 466.769531 509.640625 C 455.339844 509.640625 447.570312 501.539062 447.570312 490.109375 C 447.570312 478.679688 455.339844 470.578125 466.769531 470.578125 C 478.199219 470.578125 485.820312 478.679688 485.820312 490.109375 C 485.820312 501.539062 478.199219 509.640625 466.769531 509.640625 Z M 466.769531 509.640625 "/>
<path style=" stroke:none;fill-rule:nonzero;fill:rgb(30.980393%,52.941179%,25.882354%);fill-opacity:1;" d="M 309.871094 455.789062 C 289.230469 455.789062 274.769531 469.921875 274.769531 490.738281 C 274.769531 511.558594 291.300781 524.25 307.171875 524.25 C 323.039062 524.25 326.21875 519.328125 330.210938 509.789062 L 330.210938 522.480469 L 344.488281 522.480469 L 344.488281 490.558594 C 344.488281 469.589844 330.359375 455.789062 309.871094 455.789062 Z M 309.71875 509.609375 C 298.289062 509.609375 290.519531 501.511719 290.519531 490.078125 C 290.519531 478.648438 298.289062 470.550781 309.71875 470.550781 C 321.148438 470.550781 328.769531 478.648438 328.769531 490.078125 C 328.769531 501.511719 321.148438 509.609375 309.71875 509.609375 Z M 309.71875 509.609375 "/>
<path style=" stroke:none;fill-rule:nonzero;fill:rgb(54.509807%,81.960785%,81.176472%);fill-opacity:1;" d="M 244.230469 424.589844 C 221.039062 401.160156 186.480469 385.289062 153.71875 397.769531 C 149.128906 399.511719 144.359375 402.058594 140.398438 405.238281 L 155.308594 403.351562 C 168 402.238281 181.980469 402.871094 194.671875 405.71875 C 211.5 409.46875 227.460938 417.359375 242.101562 426.601562 C 242.578125 425.730469 243.328125 425.039062 244.199219 424.589844 Z M 244.230469 424.589844 "/>
<path style=" stroke:none;fill-rule:nonzero;fill:rgb(38.039216%,60.784316%,25.882354%);fill-opacity:1;" d="M 246.511719 429.121094 L 262.230469 429.121094 L 262.230469 522.480469 L 246.511719 522.480469 Z M 246.511719 429.121094 "/>
<path style=" stroke:none;fill-rule:nonzero;fill:rgb(78.823531%,78.823531%,78.823531%);fill-opacity:1;" d="M 270.390625 469.351562 C 270.808594 470.761719 271.289062 472.109375 271.828125 473.460938 C 277.261719 458.730469 291.421875 449.460938 309.871094 449.460938 C 318.480469 449.460938 326.101562 451.46875 332.339844 455.101562 C 337.230469 414.808594 315 376.050781 314.851562 335.671875 C 314.851562 327.269531 316.738281 317.878906 314.371094 309.808594 C 312 301.558594 305.789062 294.421875 297.238281 292.679688 C 282.480469 289.5 271.378906 305.070312 267.390625 317.429688 L 267.238281 317.578125 C 276.121094 311.878906 292.320312 310.109375 293.761719 323.941406 C 295.351562 338.851562 281.699219 367.738281 276.929688 382.980469 C 269.308594 407.429688 262.800781 444.570312 270.421875 469.320312 Z M 270.390625 469.351562 "/>
</g>
</svg>
